<?xml version="1.0" encoding="UTF-8"?>
<!DOCTYPE svg PUBLIC "-//W3C//DTD SVG 1.1//EN" "http://www.w3.org/Graphics/SVG/1.1/DTD/svg11.dtd">
<svg xmlns="http://www.w3.org/2000/svg" version="1.1" width="3219px" height="854px" style="shape-rendering:geometricPrecision; text-rendering:geometricPrecision; image-rendering:optimizeQuality; fill-rule:evenodd; clip-rule:evenodd" xmlns:xlink="http://www.w3.org/1999/xlink">
<g><path style="opacity:0.989" fill="#e8ebf5" d="M 373.5,515.5 C 372.505,466.905 372.172,418.239 372.5,369.5C 375.513,366.323 379.18,364.156 383.5,363C 472.167,362.333 560.833,362.333 649.5,363C 656.622,364.289 660.955,368.456 662.5,375.5C 663.833,511.5 663.833,647.5 662.5,783.5C 661.827,785.689 660.827,787.689 659.5,789.5C 618.42,815.027 574.087,832.194 526.5,841C 526.833,841.333 527.167,841.667 527.5,842C 509.201,844.946 490.201,847.613 470.5,850C 436.828,850.833 403.162,850.667 369.5,849.5C 317.997,846.785 269.331,835.118 223.5,814.5C 168.408,787.886 126.574,748.219 98,695.5C 86.6682,676.443 77.5016,655.777 70.5,633.5C 65.993,617.641 61.493,601.975 57,586.5C 55.8691,579.04 54.5358,571.707 53,564.5C 51.6486,555.876 50.8152,547.209 50.5,538.5C 49.8739,532.732 49.2073,527.066 48.5,521.5C 46.8514,513.54 45.8514,505.207 45.5,496.5C 44.1667,455.5 44.1667,414.5 45.5,373.5C 48.0459,323.55 56.3792,274.883 70.5,227.5C 86.8079,171.408 115.808,122.908 157.5,82C 168.257,72.239 179.591,63.239 191.5,55C 193.5,54.3333 195.5,53.6667 197.5,53C 197.043,52.586 196.709,52.086 196.5,51.5C 207.407,45.8842 218.074,40.0508 228.5,34C 249.48,25.4511 270.98,18.2844 293,12.5C 293.561,13.0219 294.228,13.3552 295,13.5C 296.171,12.6604 297.338,11.8271 298.5,11C 334.738,4.18567 371.405,1.68567 408.5,3.5C 477.534,0.257655 543.534,9.75766 606.5,32C 612.324,35.5668 617.991,38.7334 623.5,41.5C 625.802,42.8015 627.802,44.4682 629.5,46.5C 630.662,51.1313 630.828,55.798 630,60.5C 619.738,101.74 609.405,144.074 599,187.5C 597.351,188.648 595.851,189.981 594.5,191.5C 589.167,192.833 583.833,192.833 578.5,191.5C 522.095,172.979 464.095,165.979 404.5,170.5C 374.139,172.951 345.139,180.617 317.5,193.5C 306.629,200.117 296.629,207.95 287.5,217C 286.552,217.483 285.552,217.649 284.5,217.5C 284.649,218.552 284.483,219.552 284,220.5C 275.621,228.15 268.454,236.817 262.5,246.5C 257.681,256.316 252.681,265.983 247.5,275.5C 237.451,303.144 230.618,331.477 227,360.5C 221.457,415.947 222.957,470.947 231.5,525.5C 235.693,552.64 244.026,578.306 256.5,602.5C 281.712,650.298 321.378,676.965 375.5,682.5C 397.167,683.833 418.833,683.833 440.5,682.5C 455.354,681.807 470.021,679.807 484.5,676.5C 485.164,624.97 485.831,573.47 486.5,522C 450.833,521.667 415.167,521.333 379.5,521C 379.833,520.667 380.167,520.333 380.5,520C 377.124,519.904 374.791,518.404 373.5,515.5 Z"/></g>
<g><path style="opacity:0.99" fill="#e8ebf5" d="M 1435.5,31.5 C 1487.83,31.3333 1540.17,31.5 1592.5,32C 1597.03,34.2043 1600.2,37.7043 1602,42.5C 1602.83,138.07 1602.67,233.57 1601.5,329C 1677.17,329.5 1752.83,329.667 1828.5,329.5C 1828.33,233.499 1828.5,137.499 1829,41.5C 1831.04,37.2967 1834.2,34.2967 1838.5,32.5C 1890.83,31.1667 1943.17,31.1667 1995.5,32.5C 2000.47,34.1363 2003.8,37.4696 2005.5,42.5C 2006.83,303.5 2006.83,564.5 2005.5,825.5C 2003.8,830.53 2000.47,833.864 1995.5,835.5C 1943.17,836.667 1890.84,836.833 1838.5,836C 1834.47,834.645 1831.31,832.145 1829,828.5C 1828.5,716.5 1828.33,604.5 1828.5,492.5C 1752.83,492.333 1677.17,492.5 1601.5,493C 1602.67,603.43 1602.83,713.93 1602,824.5C 1601.01,830.151 1597.85,833.984 1592.5,836C 1540.16,836.833 1487.83,836.667 1435.5,835.5C 1431.99,834.656 1429.32,832.656 1427.5,829.5C 1426.17,565.833 1426.17,302.167 1427.5,38.5C 1429.67,35.3141 1432.33,32.9808 1435.5,31.5 Z"/></g>
<g><path style="opacity:0.991" fill="#e8ebf5" d="M 2654.5,827.5 C 2654.5,565.167 2654.5,302.833 2654.5,40.5C 2655.54,36.2924 2658.2,33.459 2662.5,32C 2714.83,31.3333 2767.17,31.3333 2819.5,32C 2824.23,33.2347 2827.57,36.0681 2829.5,40.5C 2830.17,128.5 2830.83,216.5 2831.5,304.5C 2833.46,301.75 2836.12,300.25 2839.5,300C 2839.17,299.667 2838.83,299.333 2838.5,299C 2840.17,298.667 2841.83,298.333 2843.5,298C 2874.05,281.838 2908.05,272.838 2945.5,271C 2945.17,270.667 2944.83,270.333 2944.5,270C 2982.83,267.506 3020.16,272.173 3056.5,284C 3067.77,289.779 3078.43,295.612 3088.5,301.5C 3100.08,311.246 3111.25,321.58 3122,332.5C 3132.02,346.546 3141.02,361.212 3149,376.5C 3171.79,431.102 3179.96,488.935 3173.5,550C 3173.46,579.34 3173.13,608.673 3172.5,638C 3170.69,652.985 3168.53,667.819 3166,682.5C 3161.59,695.81 3157.92,709.477 3155,723.5C 3146.69,746.581 3135.02,768.581 3120,789.5C 3111.83,797 3104,804.833 3096.5,813C 3070.8,832.309 3042.47,843.809 3011.5,847.5C 2954.33,854.966 2899.33,849.133 2846.5,830C 2833.59,824.212 2820.92,817.878 2808.5,811C 2801.87,806.567 2795.53,801.733 2789.5,796.5C 2787.61,806.855 2785.61,817.189 2783.5,827.5C 2781.64,831.527 2778.64,834.361 2774.5,836C 2737.17,836.667 2699.83,836.667 2662.5,836C 2658.2,834.541 2655.54,831.708 2654.5,827.5 Z M 2999.5,508.5 C 3000.14,516.599 3000.8,524.599 3001.5,532.5C 3002.65,546.759 3002.81,561.092 3002,575.5C 3000.77,592.724 2999.43,610.057 2998,627.5C 2995.6,645.756 2990.1,663.089 2981.5,679.5C 2970.89,692.224 2958.22,700.391 2943.5,704C 2932.16,704.887 2920.83,705.72 2909.5,706.5C 2902.91,704.539 2895.91,703.872 2888.5,704.5C 2875.21,701.324 2862.54,697.657 2850.5,693.5C 2842.37,689.683 2834.37,685.683 2826.5,681.5C 2826.17,600.792 2826.5,520.126 2827.5,439.5C 2845.49,429.934 2864.49,422.934 2884.5,418.5C 2907.23,413.947 2928.23,414.614 2947.5,420.5C 2972.36,432.227 2987.7,451.227 2993.5,477.5C 2996.17,487.853 2998.17,498.186 2999.5,508.5 Z"/></g>
<g><path style="opacity:0.418" fill="#dcdfe7" d="M 2654.5,40.5 C 2654.5,302.833 2654.5,565.167 2654.5,827.5C 2653.17,696.668 2652.5,565.502 2652.5,434C 2652.5,302.498 2653.17,171.332 2654.5,40.5 Z"/></g>
<g><path style="opacity:0.982" fill="#e8ebf5" d="M 813.5,53.5 C 827.351,53.2482 841.185,53.5816 855,54.5C 892.869,64.5347 917.035,88.5347 927.5,126.5C 936.016,170.088 922.682,205.255 887.5,232C 863.876,245.622 838.542,250.122 811.5,245.5C 778.561,238.356 755.228,219.356 741.5,188.5C 730.056,156.374 732.556,125.374 749,95.5C 765.183,73.0123 786.683,59.0123 813.5,53.5 Z"/></g>
<g><path style="opacity:0.988" fill="#e8ebf5" d="M 1331.5,703.5 C 1337.59,703.211 1343.59,703.545 1349.5,704.5C 1354.51,705.347 1357.35,708.347 1358,713.5C 1358.67,751.5 1358.67,789.5 1358,827.5C 1357.13,831.204 1354.96,833.871 1351.5,835.5C 1306.96,848.6 1260.96,852.767 1213.5,848C 1213.83,847.667 1214.17,847.333 1214.5,847C 1180.61,844.859 1149.27,834.025 1120.5,814.5C 1115.72,811.395 1112.06,807.395 1109.5,802.5C 1108.17,802.5 1106.83,802.5 1105.5,802.5C 1105.76,801.022 1105.43,799.689 1104.5,798.5C 1101.95,796.025 1099.29,793.692 1096.5,791.5C 1072.93,759.731 1060.93,723.731 1060.5,683.5C 1059.5,600.503 1059.17,517.503 1059.5,434.5C 1032.16,434.667 1004.83,434.5 977.5,434C 973.872,432.208 971.539,429.375 970.5,425.5C 969.167,389.5 969.167,353.5 970.5,317.5C 973.447,313.698 977.114,310.865 981.5,309C 1007.25,303.223 1032.91,297.056 1058.5,290.5C 1058.86,237.393 1059.86,184.393 1061.5,131.5C 1063.43,131.769 1065.1,131.269 1066.5,130C 1120.17,129.167 1173.84,129.333 1227.5,130.5C 1228.5,131.167 1229.5,131.833 1230.5,132.5C 1232.49,183.351 1233.16,234.351 1232.5,285.5C 1271.17,285.333 1309.83,285.5 1348.5,286C 1350.42,287.588 1352.42,289.088 1354.5,290.5C 1355.17,292.5 1355.83,294.5 1356.5,296.5C 1357.83,338.833 1357.83,381.167 1356.5,423.5C 1355.34,428.186 1352.67,431.686 1348.5,434C 1309.83,434.5 1271.17,434.667 1232.5,434.5C 1232.17,508.836 1232.5,583.17 1233.5,657.5C 1238.63,684.966 1254.96,700.3 1282.5,703.5C 1299,704.827 1315.33,704.827 1331.5,703.5 Z"/></g>
<g><path style="opacity:0.988" fill="#e7eaf4" d="M 742.5,819.5 C 743.172,644.646 743.838,469.646 744.5,294.5C 744.238,293.022 744.571,291.689 745.5,290.5C 747.391,288.984 749.391,287.65 751.5,286.5C 804.497,285.333 857.497,285.167 910.5,286C 915.462,288.362 918.629,292.195 920,297.5C 920.667,470.5 920.667,643.5 920,816.5C 918.756,819.638 918.089,822.972 918,826.5C 915.473,831.031 911.639,834.031 906.5,835.5C 856.833,836.833 807.167,836.833 757.5,835.5C 747.966,834.302 742.966,828.969 742.5,819.5 Z"/></g>
<g><path style="opacity:0.988" fill="#e8ebf5" d="M 2080.5,287.5 C 2135.17,287.333 2189.83,287.5 2244.5,288C 2247.75,290.081 2250.08,292.914 2251.5,296.5C 2252.17,416.833 2252.83,537.167 2253.5,657.5C 2257.06,682.251 2269.73,697.584 2291.5,703.5C 2332.84,709.381 2370.17,701.381 2403.5,679.5C 2404.33,551.168 2404.83,422.835 2405,294.5C 2405.33,294.833 2405.67,295.167 2406,295.5C 2407.44,292.391 2409.61,289.891 2412.5,288C 2465.83,287.333 2519.17,287.333 2572.5,288C 2575.26,289.253 2577.59,291.087 2579.5,293.5C 2580.67,471.46 2580.83,649.46 2580,827.5C 2577.84,830.656 2575.34,833.489 2572.5,836C 2536.83,836.833 2501.16,836.667 2465.5,835.5C 2461.28,833.837 2458.78,830.837 2458,826.5C 2457.67,826.833 2457.33,827.167 2457,827.5C 2455.63,819.548 2454.63,811.548 2454,803.5C 2453.67,803.833 2453.33,804.167 2453,804.5C 2452.78,803.062 2452.28,801.729 2451.5,800.5C 2448.11,802.189 2445.11,804.356 2442.5,807C 2426.38,815.376 2410.04,823.043 2393.5,830C 2345.64,848.088 2294.64,854.755 2240.5,850C 2215.15,847.864 2190.49,842.531 2166.5,834C 2124.99,816.321 2097.66,785.821 2084.5,742.5C 2082.37,732.657 2079.87,722.99 2077,713.5C 2075.21,701.668 2074.05,689.668 2073.5,677.5C 2072.33,550.835 2072.17,424.168 2073,297.5C 2075.27,294.052 2077.77,290.719 2080.5,287.5 Z"/></g>
<g><path style="opacity:0.16" fill="#f3f6fe" d="M 744.5,294.5 C 743.838,469.646 743.172,644.646 742.5,819.5C 741.835,644.163 742.501,469.163 744.5,294.5 Z"/></g>
<g><path style="opacity:0.149" fill="#aeb0b8" d="M 372.5,369.5 C 372.172,418.239 372.505,466.905 373.5,515.5C 372.167,491.509 371.5,467.176 371.5,442.5C 371.5,417.998 371.833,393.664 372.5,369.5 Z"/></g>
<g><path style="opacity:0.015" fill="#a7a9b1" d="M 2999.5,508.5 C 3001.47,516.097 3002.13,524.097 3001.5,532.5C 3000.8,524.599 3000.14,516.599 2999.5,508.5 Z"/></g>
<g><path style="opacity:0.08" fill="#adafb7" d="M 48.5,521.5 C 49.2073,527.066 49.8739,532.732 50.5,538.5C 48.55,533.265 47.8833,527.598 48.5,521.5 Z"/></g>
<g><path style="opacity:0.048" fill="#aeb0b8" d="M 1331.5,703.5 C 1334.31,702.835 1337.31,702.502 1340.5,702.5C 1343.91,702.517 1346.91,703.184 1349.5,704.5C 1343.59,703.545 1337.59,703.211 1331.5,703.5 Z"/></g>
<g><path style="opacity:0.048" fill="#aeb0b8" d="M 2888.5,704.5 C 2895.91,703.872 2902.91,704.539 2909.5,706.5C 2902.4,705.866 2895.4,705.199 2888.5,704.5 Z"/></g>
</svg>
