<?xml version="1.0" encoding="UTF-8"?>
<!DOCTYPE svg PUBLIC "-//W3C//DTD SVG 1.1//EN" "http://www.w3.org/Graphics/SVG/1.1/DTD/svg11.dtd">
<svg xmlns="http://www.w3.org/2000/svg" version="1.1" width="1992px" height="375px" style="shape-rendering:geometricPrecision; text-rendering:geometricPrecision; image-rendering:optimizeQuality; fill-rule:evenodd; clip-rule:evenodd" xmlns:xlink="http://www.w3.org/1999/xlink">
<g><path style="opacity:0.97" fill="#e8ebf5" d="M 35.5,-0.5 C 63.5,-0.5 91.5,-0.5 119.5,-0.5C 119.333,98.1672 119.5,196.834 120,295.5C 144.452,294.171 169.118,293.505 194,293.5C 219.252,293.342 244.419,293.842 269.5,295C 270.495,321.426 270.828,347.926 270.5,374.5C 192.167,374.5 113.833,374.5 35.5,374.5C 35.5,249.5 35.5,124.5 35.5,-0.5 Z"/></g>
<g><path style="opacity:0.965" fill="#e7eaf4" d="M 317.5,-0.5 C 333.833,-0.5 350.167,-0.5 366.5,-0.5C 389.821,16.7816 395.655,38.7816 384,65.5C 371.26,84.9494 353.427,92.4494 330.5,88C 302.846,77.5689 291.513,57.7356 296.5,28.5C 299.056,21.7202 302.389,15.3868 306.5,9.5C 310.265,6.05842 313.932,2.72509 317.5,-0.5 Z"/></g>
<g><path style="opacity:0.968" fill="#e8ebf5" d="M 704.5,-0.5 C 732.167,-0.5 759.833,-0.5 787.5,-0.5C 787.333,71.5008 787.5,143.501 788,215.5C 815.586,183.405 843.42,151.405 871.5,119.5C 904.858,118.813 938.191,118.146 971.5,117.5C 971.662,119.527 971.495,121.527 971,123.5C 970.667,123.167 970.333,122.833 970,122.5C 961.31,133.869 952.143,144.869 942.5,155.5C 917.571,182.255 893.238,209.422 869.5,237C 902.648,281.152 935.814,325.319 969,369.5C 969.494,371.134 969.66,372.801 969.5,374.5C 935.5,374.5 901.5,374.5 867.5,374.5C 842.241,336.474 815.741,296.474 788,254.5C 787.827,294.571 787.327,334.571 786.5,374.5C 759.167,374.5 731.833,374.5 704.5,374.5C 704.5,249.5 704.5,124.5 704.5,-0.5 Z"/></g>
<g><path style="opacity:0.972" fill="#e8ebf5" d="M 1427.5,-0.5 C 1454.83,-0.5 1482.17,-0.5 1509.5,-0.5C 1509.5,124.5 1509.5,249.5 1509.5,374.5C 1484.17,374.5 1458.83,374.5 1433.5,374.5C 1432.72,364.546 1432.22,354.546 1432,344.5C 1421.53,357 1408.03,367 1391.5,374.5C 1365.5,374.5 1339.5,374.5 1313.5,374.5C 1299.88,368.516 1286.88,361.183 1274.5,352.5C 1252.62,331.695 1239.12,307.028 1234,278.5C 1226.95,242.352 1231.45,207.685 1247.5,174.5C 1273.39,126.974 1313.22,105.641 1367,110.5C 1385.91,113.099 1403.07,119.932 1418.5,131C 1421.41,133.569 1423.91,136.402 1426,139.5C 1426.17,92.7625 1426.67,46.0959 1427.5,-0.5 Z M 1359.5,184.5 C 1383.19,181.078 1403.52,187.412 1420.5,203.5C 1425.61,212.062 1429.45,221.062 1432,230.5C 1435.62,250.143 1432.12,268.143 1421.5,284.5C 1408.82,299.257 1392.65,306.923 1373,307.5C 1340.16,305.577 1320.83,289.244 1315,258.5C 1314.67,258.833 1314.33,259.167 1314,259.5C 1311.61,241.893 1314.44,225.227 1322.5,209.5C 1331.25,196.571 1343.25,188.737 1358.5,186C 1359.06,185.617 1359.39,185.117 1359.5,184.5 Z"/></g>
<g><path style="opacity:0.99" fill="#e8ebf5" d="M 1603.5,0.5 C 1715.5,0.333335 1827.5,0.500001 1939.5,1C 1949.2,4.69733 1955.37,11.5307 1958,21.5C 1958.67,131.833 1958.67,242.167 1958,352.5C 1955.29,362.883 1948.79,369.716 1938.5,373C 1827.17,373.667 1715.83,373.667 1604.5,373C 1592.16,368.989 1585.33,360.489 1584,347.5C 1583.33,240.167 1583.33,132.833 1584,25.5C 1585.74,13.3145 1592.24,4.9812 1603.5,0.5 Z M 1666.5,53.5 C 1688.77,55.9318 1699.27,68.2651 1698,90.5C 1690.32,111.915 1675.49,118.748 1653.5,111C 1641.75,103.324 1636.58,92.4907 1638,78.5C 1642.14,63.847 1651.64,55.5137 1666.5,53.5 Z M 1823.5,138.5 C 1834.88,138.174 1846.21,138.674 1857.5,140C 1875.46,143.882 1887.63,154.382 1894,171.5C 1898.33,185.074 1900.33,199.074 1900,213.5C 1900.17,247.738 1900.67,281.905 1901.5,316C 1883.84,316.5 1866.17,316.667 1848.5,316.5C 1848.94,279.475 1848.44,242.475 1847,205.5C 1843.62,189.968 1833.95,182.635 1818,183.5C 1801.63,182.674 1790.97,190.007 1786,205.5C 1784.91,211.782 1784.24,218.116 1784,224.5C 1783.5,255.165 1783.33,285.832 1783.5,316.5C 1766.5,316.5 1749.5,316.5 1732.5,316.5C 1732.5,258.5 1732.5,200.5 1732.5,142.5C 1748.83,142.5 1765.17,142.5 1781.5,142.5C 1781.5,150.167 1781.5,157.833 1781.5,165.5C 1783.17,165.5 1784.83,165.5 1786.5,165.5C 1792.51,153.665 1801.84,145.498 1814.5,141C 1817.63,140.159 1820.63,139.325 1823.5,138.5 Z M 1641.5,143.5 C 1658.99,142.503 1676.66,142.17 1694.5,142.5C 1694.5,200.5 1694.5,258.5 1694.5,316.5C 1676.83,316.667 1659.16,316.5 1641.5,316C 1642.83,258.402 1642.83,200.902 1641.5,143.5 Z"/></g>
<g><path style="opacity:0.975" fill="#e8ebf5" d="M 1136.5,374.5 C 1105.83,374.5 1075.17,374.5 1044.5,374.5C 1020.26,366.305 999.263,352.971 981.5,334.5C 956.847,304.473 946.514,269.473 950.5,229.5C 958.083,175.088 987.416,138.255 1038.5,119C 1073.19,107.667 1107.52,107.667 1141.5,119C 1168.93,130.932 1188.6,150.766 1200.5,178.5C 1206.83,193.159 1210.83,209.159 1212.5,226.5C 1213.5,241.819 1213.83,257.152 1213.5,272.5C 1153.16,272.167 1092.83,272.5 1032.5,273.5C 1039.02,294.522 1052.69,308.356 1073.5,315C 1093.58,318.981 1111.91,314.815 1128.5,302.5C 1134.26,297.083 1139.59,291.416 1144.5,285.5C 1162.7,297.744 1180.36,310.744 1197.5,324.5C 1198.69,325.429 1200.02,325.762 1201.5,325.5C 1201.66,327.199 1201.49,328.866 1201,330.5C 1182.93,350.585 1161.43,365.251 1136.5,374.5 Z M 1069.5,172.5 C 1099.47,167.898 1119.64,178.898 1130,205.5C 1130.67,208.833 1130.67,212.167 1130,215.5C 1097.67,214.167 1065.33,214.167 1033,215.5C 1034.6,200.65 1041.6,188.983 1054,180.5C 1059.25,177.628 1064.42,174.961 1069.5,172.5 Z"/></g>
<g><path style="opacity:0.971" fill="#e8ebf5" d="M 669.5,374.5 C 642.5,374.5 615.5,374.5 588.5,374.5C 589.117,321.801 588.284,269.135 586,216.5C 585.667,216.833 585.333,217.167 585,217.5C 582.576,196.621 570.409,186.288 548.5,186.5C 531.25,185.116 518.917,192.116 511.5,207.5C 508.117,215.79 506.117,225.124 505.5,235.5C 504.5,281.829 504.167,328.162 504.5,374.5C 477.5,374.5 450.5,374.5 423.5,374.5C 422.177,331.81 421.511,288.977 421.5,246C 421.833,203.833 422.167,161.667 422.5,119.5C 448.457,118.343 474.457,118.176 500.5,119C 502.292,127.908 503.126,137.074 503,146.5C 520.632,122.535 544.965,111.202 576,112.5C 627.093,111.162 657.26,135.162 666.5,184.5C 667.328,189.132 667.828,193.798 668,198.5C 668.333,198.167 668.667,197.833 669,197.5C 669.5,256.499 669.667,315.499 669.5,374.5 Z"/></g>
<g><path style="opacity:0.97" fill="#e8ebf5" d="M 383.5,374.5 C 356.167,374.5 328.833,374.5 301.5,374.5C 301.333,289.499 301.5,204.499 302,119.5C 315.427,118.838 328.927,118.504 342.5,118.5C 356.21,118.508 369.877,118.842 383.5,119.5C 384.828,204.538 384.828,289.538 383.5,374.5 Z"/></g>
</svg>
